<svg width="40" height="40" viewBox="0 0 40 40" fill="none" xmlns="http://www.w3.org/2000/svg">
<g id="collections_24px">
<path id="icon/image/collections_24px" fill-rule="evenodd" clip-rule="evenodd" d="M13.3334 3.33333H33.3334C35.1667 3.33333 36.6667 4.83333 36.6667 6.66666V26.6667C36.6667 28.5 35.1667 30 33.3334 30H13.3334C11.5 30 10 28.5 10 26.6667V6.66666C10 4.83333 11.5 3.33333 13.3334 3.33333ZM33.3334 26.6667V6.66666H13.3334V26.6667H33.3334ZM19.1667 19.45L21.9834 23.2167L26.1167 18.05L31.6667 25H15L19.1667 19.45ZM3.33337 33.3333V9.99999H6.66671V33.3333H30V36.6667H6.66671C4.83337 36.6667 3.33337 35.1667 3.33337 33.3333Z" fill="white"/>
</g>
</svg>
