<svg width="40" height="40" viewBox="0 0 40 40" fill="none" xmlns="http://www.w3.org/2000/svg">
<g id="thumb_up_alt_24px">
<path id="icon/social/thumb_up_alt_24px" fill-rule="evenodd" clip-rule="evenodd" d="M35 15H24.4833L26.0666 7.38333L26.1166 6.84999C26.1166 6.16666 25.8333 5.53333 25.3833 5.08333L23.6166 3.33333L12.65 14.3167C12.0333 14.9167 11.6666 15.75 11.6666 16.6667V33.3333C11.6666 35.1667 13.1666 36.6667 15 36.6667H30C31.3833 36.6667 32.5666 35.8333 33.0666 34.6333L38.1 22.8833C38.25 22.5 38.3333 22.1 38.3333 21.6667V18.3333C38.3333 16.5 36.8333 15 35 15ZM35 21.6667L30 33.3333H15V16.6667L22.2333 9.43333L20.3833 18.3333H35V21.6667ZM8.33329 16.6667H1.66663V36.6667H8.33329V16.6667Z" fill="white"/>
</g>
</svg>
