<svg width="40" height="40" viewBox="0 0 40 40" fill="none" xmlns="http://www.w3.org/2000/svg">
<g id="toggle_on_24px">
<path id="icon/toggle/toggle_on_24px" fill-rule="evenodd" clip-rule="evenodd" d="M28.3333 10H11.6666C6.14996 10 1.66663 14.4833 1.66663 20C1.66663 25.5167 6.14996 30 11.6666 30H28.3333C33.85 30 38.3333 25.5167 38.3333 20C38.3333 14.4833 33.85 10 28.3333 10ZM28.3333 26.6667H11.6667C7.98333 26.6667 5 23.6833 5 20C5 16.3167 7.98333 13.3333 11.6667 13.3333H28.3333C32.0167 13.3333 35 16.3167 35 20C35 23.6833 32.0167 26.6667 28.3333 26.6667ZM23.3332 20C23.3332 17.2333 25.5666 15 28.3332 15C31.0999 15 33.3332 17.2333 33.3332 20C33.3332 22.7667 31.0999 25 28.3332 25C25.5666 25 23.3332 22.7667 23.3332 20Z" fill="#070E26"/>
</g>
</svg>
