<svg width="40" height="40" viewBox="0 0 40 40" fill="none" xmlns="http://www.w3.org/2000/svg">
<g id="cloud_download_24px">
<path id="icon/file/cloud_download_24px" fill-rule="evenodd" clip-rule="evenodd" d="M32.25 16.7334C31.1167 10.9834 26.0667 6.66669 20 6.66669C15.1833 6.66669 11 9.40002 8.91667 13.4C3.9 13.9334 0 18.1834 0 23.3333C0 28.85 4.48333 33.3333 10 33.3333H31.6667C36.2667 33.3333 40 29.6 40 25C40 20.6 36.5833 17.0334 32.25 16.7334ZM31.6667 30H10C6.31666 30 3.33333 27.0167 3.33333 23.3334C3.33333 19.9167 5.88333 17.0667 9.26666 16.7167L11.05 16.5334L11.8833 14.95C13.4667 11.9 16.5667 10 20 10C24.3667 10 28.1333 13.1 28.9833 17.3834L29.4833 19.8834L32.0333 20.0667C34.6333 20.2334 36.6667 22.4167 36.6667 25C36.6667 27.75 34.4167 30 31.6667 30ZM17.5833 16.6667H22.4167V21.6667H26.6667L20 28.3334L13.3333 21.6667H17.5833V16.6667Z" fill="#BF4539"/>
</g>
</svg>
