<svg width="40" height="40" viewBox="0 0 40 40" fill="none" xmlns="http://www.w3.org/2000/svg">
<g id="favorite_border_24px">
<path id="icon/action/favorite_border_24px" fill-rule="evenodd" clip-rule="evenodd" d="M20 8.19168C21.8167 6.05834 24.6 4.70834 27.5 4.70834C32.6334 4.70834 36.6667 8.74168 36.6667 13.875C36.6667 20.1698 31.0093 25.2999 22.4378 33.0725L22.4167 33.0917L20 35.2917L17.5834 33.1083L17.5176 33.0486C8.97109 25.2821 3.33337 20.1589 3.33337 13.875C3.33337 8.74168 7.36671 4.70834 12.5 4.70834C15.4 4.70834 18.1834 6.05834 20 8.19168ZM20 30.7917L20.1667 30.625C28.1 23.4417 33.3334 18.6917 33.3334 13.875C33.3334 10.5417 30.8334 8.04168 27.5 8.04168C24.9334 8.04168 22.4334 9.69168 21.5667 11.975H18.45C17.5667 9.69168 15.0667 8.04168 12.5 8.04168C9.1667 8.04168 6.6667 10.5417 6.6667 13.875C6.6667 18.6917 11.9 23.4417 19.8334 30.625L20 30.7917Z" fill="#BF4539"/>
</g>
</svg>
