<svg width="40" height="40" viewBox="0 0 40 40" fill="none" xmlns="http://www.w3.org/2000/svg">
<g id="person_add_24px">
<path id="icon/social/person_add_24px" fill-rule="evenodd" clip-rule="evenodd" d="M25 20C28.6833 20 31.6666 17.0167 31.6666 13.3334C31.6666 9.65002 28.6833 6.66669 25 6.66669C21.3166 6.66669 18.3333 9.65002 18.3333 13.3334C18.3333 17.0167 21.3166 20 25 20ZM25 10C26.8333 10 28.3333 11.5 28.3333 13.3334C28.3333 15.1667 26.8333 16.6667 25 16.6667C23.1666 16.6667 21.6666 15.1667 21.6666 13.3334C21.6666 11.5 23.1666 10 25 10ZM11.6666 30C11.6666 25.5667 20.55 23.3334 25 23.3334C29.45 23.3334 38.3333 25.5667 38.3333 30V33.3334H11.6666V30ZM15 30C15.3666 28.8 20.5166 26.6667 25 26.6667C29.5 26.6667 34.6666 28.8167 35 30H15ZM9.99996 20V25H6.66663V20H1.66663V16.6667H6.66663V11.6667H9.99996V16.6667H15V20H9.99996Z" fill="#BF4539"/>
</g>
</svg>
