<svg width="40" height="40" viewBox="0 0 40 40" fill="none" xmlns="http://www.w3.org/2000/svg">
<g id="person_outline_24px">
<path id="icon/social/person_outline_24px" fill-rule="evenodd" clip-rule="evenodd" d="M20 6.66669C16.3166 6.66669 13.3333 9.65002 13.3333 13.3334C13.3333 17.0167 16.3166 20 20 20C23.6833 20 26.6666 17.0167 26.6666 13.3334C26.6666 9.65002 23.6833 6.66669 20 6.66669ZM23.5 13.3334C23.5 11.4 21.9333 9.83335 20 9.83335C18.0666 9.83335 16.5 11.4 16.5 13.3334C16.5 15.2667 18.0666 16.8334 20 16.8334C21.9333 16.8334 23.5 15.2667 23.5 13.3334ZM30.1666 28.3334C30.1666 27.2667 24.95 24.8334 20 24.8334C15.05 24.8334 9.83331 27.2667 9.83331 28.3334V30.1667H30.1666V28.3334ZM6.66663 28.3334C6.66663 23.9 15.55 21.6667 20 21.6667C24.45 21.6667 33.3333 23.9 33.3333 28.3334V33.3334H6.66663V28.3334Z" fill="#BF4539"/>
</g>
</svg>
