<svg width="100" height="100" viewBox="0 0 100 100" fill="none" xmlns="http://www.w3.org/2000/svg">
<path fill-rule="evenodd" clip-rule="evenodd" d="M20.8333 49.8958C20.8333 66.0208 33.875 79.0625 50 79.0625C59.2083 79.0625 67.375 74.8125 72.7083 68.1458L83.5417 74.5208C75.9583 84.8542 63.75 91.5625 49.9583 91.5625C26.9583 91.5625 8.33334 72.8958 8.33334 49.8958C8.33334 28.2708 24.75 10.5208 45.8333 8.4375V21.0625C31.7083 23.1042 20.8333 35.1875 20.8333 49.8958ZM54.1667 21.0625V8.4375C75.2083 10.5208 91.6667 28.3125 91.6667 49.8958C91.6667 55.9375 90.3333 61.6875 88 66.8542L77.1667 60.4792C78.4167 57.1875 79.1667 53.6458 79.1667 49.8958C79.1667 35.1875 68.2917 23.1042 54.1667 21.0625Z" fill="black" fill-opacity="0.54"/>
<path fill-rule="evenodd" clip-rule="evenodd" d="M28 50C28 37.856 37.856 28 50 28C62.144 28 72 37.856 72 50C72 62.144 62.144 72 50 72C37.856 72 28 62.144 28 50ZM50 36.8C53.388 36.8 56.754 38.098 59.328 40.672C64.498 45.82 64.498 54.18 59.35 59.328C54.18 64.476 45.82 64.476 40.672 59.328L50 50V36.8Z" fill="black" fill-opacity="0.54"/>
<!--  --></svg>
